<svg xmlns="http://www.w3.org/2000/svg" xmlns:xlink="http://www.w3.org/1999/xlink" width="1920" zoomAndPan="magnify" viewBox="0 0 1440 359.999987" height="480" preserveAspectRatio="xMidYMid meet" version="1.0"><defs><g/></defs><g fill="#ff0073" fill-opacity="1"><g transform="translate(161.824162, 265.124979)"><g><path d="M 69.359375 -15.296875 C 67.992188 -9.347656 65.910156 -4.757812 63.109375 -1.53125 C 60.304688 1.695312 55.757812 3.3125 49.46875 3.3125 C 44.195312 3.3125 40.328125 2.414062 37.859375 0.625 C 35.398438 -1.15625 34.171875 -4.171875 34.171875 -8.421875 C 34.171875 -10.285156 34.425781 -12.066406 34.9375 -13.765625 L 66.046875 -137.1875 C 65.878906 -137.1875 60.351562 -136.59375 49.46875 -135.40625 C 36.375 -134.382812 28.210938 -133.535156 24.984375 -132.859375 C 21.585938 -134.046875 18.992188 -135.867188 17.203125 -138.328125 C 15.421875 -140.796875 14.53125 -143.734375 14.53125 -147.140625 C 14.53125 -149.859375 15.507812 -152.445312 17.46875 -154.90625 C 19.425781 -157.375 21.765625 -159.203125 24.484375 -160.390625 C 32.984375 -162.085938 44.878906 -163.53125 60.171875 -164.71875 C 75.472656 -165.914062 95.109375 -167.195312 119.078125 -168.5625 C 131.316406 -169.0625 139.5625 -169.566406 143.8125 -170.078125 C 146.539062 -168.890625 148.878906 -167.0625 150.828125 -164.59375 C 152.785156 -162.132812 153.765625 -159.546875 153.765625 -156.828125 C 153.765625 -153.765625 152.234375 -150.785156 149.171875 -147.890625 C 146.109375 -145.003906 142.625 -142.96875 138.71875 -141.78125 L 94.09375 -139.484375 C 95.96875 -138.804688 96.90625 -136.507812 96.90625 -132.59375 C 96.90625 -130.5625 96.734375 -129.035156 96.390625 -128.015625 C 93.503906 -115.085938 89.550781 -98.335938 84.53125 -77.765625 C 79.519531 -57.203125 76.160156 -43.265625 74.453125 -35.953125 C 73.441406 -31.703125 72.507812 -27.875 71.65625 -24.46875 C 70.800781 -21.070312 70.035156 -18.015625 69.359375 -15.296875 Z M 69.359375 -15.296875 "/></g></g></g><g fill="#ff0073" fill-opacity="1"><g transform="translate(329.099582, 265.124979)"><g><path d="M 30.859375 -132.09375 C 27.453125 -133.28125 24.859375 -135.101562 23.078125 -137.5625 C 21.296875 -140.03125 20.40625 -142.96875 20.40625 -146.375 C 20.40625 -151.300781 23.71875 -155.207031 30.34375 -158.09375 C 54.65625 -163.03125 79.132812 -166.519531 103.78125 -168.5625 C 110.414062 -165.664062 113.734375 -161.753906 113.734375 -156.828125 C 113.734375 -153.765625 112.203125 -150.785156 109.140625 -147.890625 C 106.078125 -145.003906 102.59375 -142.96875 98.6875 -141.78125 L 84.65625 -140 C 81.769531 -127.25 75.140625 -99.789062 64.765625 -57.625 L 57.625 -29.0625 L 77.265625 -31.109375 C 83.890625 -28.222656 87.203125 -24.3125 87.203125 -19.375 C 87.203125 -16.320312 85.671875 -13.347656 82.609375 -10.453125 C 79.554688 -7.566406 76.078125 -5.523438 72.171875 -4.328125 L 61.96875 -3.0625 C 36.976562 -0.34375 17.765625 2.460938 4.328125 5.359375 C 0.929688 4.160156 -1.65625 2.332031 -3.4375 -0.125 C -5.226562 -2.59375 -6.125 -5.523438 -6.125 -8.921875 C -6.125 -13.847656 -2.804688 -17.757812 3.828125 -20.65625 C 12.328125 -22.351562 18.785156 -23.539062 23.203125 -24.21875 L 51.25 -135.65625 C 44.28125 -134.632812 37.484375 -133.445312 30.859375 -132.09375 Z M 30.859375 -132.09375 "/></g></g></g><g fill="#ff0073" fill-opacity="1"><g transform="translate(455.576309, 265.124979)"><g><path d="M 160.390625 -263.15625 C 166.335938 -263.15625 171.519531 -261.835938 175.9375 -259.203125 C 180.363281 -256.566406 182.578125 -252.785156 182.578125 -247.859375 C 182.578125 -239.015625 176.628906 -232.210938 164.734375 -227.453125 C 162.347656 -226.609375 160.6875 -225.546875 159.75 -224.265625 C 158.820312 -222.992188 158.1875 -221.632812 157.84375 -220.1875 C 157.5 -218.75 157.160156 -217.601562 156.828125 -216.75 C 154.953125 -213.007812 151.890625 -211.140625 147.640625 -211.140625 C 145.429688 -211.140625 143.6875 -211.519531 142.40625 -212.28125 C 141.132812 -213.050781 140.5 -214.03125 140.5 -215.21875 C 140.5 -215.894531 141.601562 -220.316406 143.8125 -228.484375 C 144.320312 -230.691406 145.507812 -232.347656 147.375 -233.453125 C 149.25 -234.554688 151.804688 -235.617188 155.046875 -236.640625 C 158.441406 -237.828125 160.945312 -238.972656 162.5625 -240.078125 C 164.175781 -241.179688 164.984375 -243.007812 164.984375 -245.5625 C 164.984375 -246.582031 164.429688 -247.5625 163.328125 -248.5 C 162.222656 -249.4375 160.3125 -249.90625 157.59375 -249.90625 C 154.019531 -249.90625 151.046875 -249.222656 148.671875 -247.859375 C 146.628906 -246.835938 144.84375 -246.328125 143.3125 -246.328125 C 141.945312 -246.328125 140.753906 -247.003906 139.734375 -248.359375 C 138.710938 -249.722656 138.203125 -251.171875 138.203125 -252.703125 C 138.203125 -256.609375 140.410156 -259.328125 144.828125 -260.859375 C 149.253906 -262.390625 154.441406 -263.15625 160.390625 -263.15625 Z M 73.953125 -179.015625 C 70.546875 -179.015625 67.523438 -179.773438 64.890625 -181.296875 C 62.253906 -182.828125 60.9375 -184.867188 60.9375 -187.421875 C 60.9375 -189.296875 61.234375 -190.992188 61.828125 -192.515625 C 62.429688 -194.046875 63.921875 -195.75 66.296875 -197.625 L 71.90625 -202.21875 C 84.65625 -212.757812 93.410156 -219.8125 98.171875 -223.375 C 100.722656 -225.414062 104.550781 -226.4375 109.65625 -226.4375 C 113.050781 -226.4375 116.066406 -225.628906 118.703125 -224.015625 C 121.335938 -222.398438 124.609375 -219.039062 128.515625 -213.9375 L 141.53125 -197.109375 C 143.226562 -194.898438 144.078125 -192.773438 144.078125 -190.734375 C 144.078125 -188.015625 142.757812 -185.675781 140.125 -183.71875 C 137.488281 -181.769531 134.382812 -180.796875 130.8125 -180.796875 C 127.414062 -180.796875 124.1875 -182.582031 121.125 -186.15625 L 107.09375 -202.984375 C 96.894531 -194.140625 89.375 -187.929688 84.53125 -184.359375 C 79.6875 -180.796875 76.160156 -179.015625 73.953125 -179.015625 Z M 145.09375 -172.375 C 151.21875 -169.144531 154.28125 -165.066406 154.28125 -160.140625 C 154.28125 -157.078125 152.617188 -154.226562 149.296875 -151.59375 C 145.984375 -148.957031 142.285156 -147.128906 138.203125 -146.109375 L 126.984375 -145.34375 C 121.890625 -145.007812 115.003906 -144.546875 106.328125 -143.953125 C 97.660156 -143.359375 87.460938 -142.550781 75.734375 -141.53125 L 64.265625 -95.875 C 74.972656 -97.582031 83.851562 -98.941406 90.90625 -99.953125 C 97.957031 -100.972656 105.820312 -101.828125 114.5 -102.515625 C 121.125 -99.617188 124.4375 -95.707031 124.4375 -90.78125 C 124.4375 -87.71875 122.90625 -84.738281 119.84375 -81.84375 C 116.789062 -78.957031 113.304688 -76.921875 109.390625 -75.734375 L 94.859375 -74.203125 C 79.390625 -72.503906 66.976562 -70.804688 57.625 -69.109375 C 55.582031 -59.753906 52.691406 -47.9375 48.953125 -33.65625 L 46.921875 -25.75 C 69.523438 -30 91.367188 -32.976562 112.453125 -34.6875 C 119.085938 -31.789062 122.40625 -27.878906 122.40625 -22.953125 C 122.40625 -19.890625 120.875 -16.910156 117.8125 -14.015625 C 114.75 -11.128906 111.265625 -9.09375 107.359375 -7.90625 C 75.054688 -4.164062 52.273438 -1.019531 39.015625 1.53125 C 37.484375 2.550781 34.164062 3.0625 29.0625 3.0625 C 24.3125 3.0625 20.109375 0.851562 16.453125 -3.5625 C 12.796875 -7.988281 10.96875 -12.582031 10.96875 -17.34375 C 10.96875 -19.207031 11.222656 -20.988281 11.734375 -22.6875 L 40.796875 -137.703125 L 40.03125 -137.703125 C 39.863281 -139.566406 38.675781 -141.859375 36.46875 -144.578125 C 36.289062 -144.921875 35.609375 -145.984375 34.421875 -147.765625 C 33.234375 -149.554688 32.640625 -151.300781 32.640625 -153 C 32.984375 -157.925781 36.210938 -161.835938 42.328125 -164.734375 C 55.078125 -166.429688 72.925781 -168.085938 95.875 -169.703125 C 118.832031 -171.316406 135.238281 -172.207031 145.09375 -172.375 Z M 145.09375 -172.375 "/></g></g></g><g fill="#ff0073" fill-opacity="1"><g transform="translate(622.596774, 265.124979)"><g><path d="M 29.328125 -150.703125 C 31.191406 -158.179688 33.1875 -163.148438 35.3125 -165.609375 C 37.4375 -168.078125 41.304688 -169.3125 46.921875 -169.3125 C 51.515625 -169.3125 55.46875 -168.800781 58.78125 -167.78125 C 62.09375 -166.769531 63.832031 -165.242188 64 -163.203125 C 64.851562 -162.691406 65.28125 -161.332031 65.28125 -159.125 C 65.28125 -155.550781 64.34375 -150.109375 62.46875 -142.796875 C 60.601562 -135.484375 57.882812 -125.960938 54.3125 -114.234375 C 50.226562 -100.128906 46.910156 -88.144531 44.359375 -78.28125 C 41.816406 -68.425781 40.207031 -60.015625 39.53125 -53.046875 L 39.265625 -49.46875 C 39.265625 -42.664062 40.960938 -37.097656 44.359375 -32.765625 C 47.765625 -28.429688 51.929688 -25.285156 56.859375 -23.328125 C 61.796875 -21.378906 66.644531 -20.40625 71.40625 -20.40625 C 82.28125 -20.40625 90.863281 -22.910156 97.15625 -27.921875 C 103.445312 -32.929688 108.25 -39.8125 111.5625 -48.5625 C 114.875 -57.320312 117.976562 -69.269531 120.875 -84.40625 C 122.40625 -92.050781 124.785156 -103.097656 128.015625 -117.546875 C 131.242188 -132.003906 133.367188 -140.757812 134.390625 -143.8125 C 135.921875 -148.238281 136.851562 -151.640625 137.1875 -154.015625 C 138.207031 -157.929688 139.269531 -160.90625 140.375 -162.9375 C 141.476562 -164.976562 143.222656 -166.765625 145.609375 -168.296875 C 146.285156 -168.472656 147.21875 -168.6875 148.40625 -168.9375 C 149.59375 -169.1875 150.53125 -169.3125 151.21875 -169.3125 C 157 -169.3125 161.800781 -168.800781 165.625 -167.78125 C 169.445312 -166.769531 171.695312 -165.5 172.375 -163.96875 C 169.832031 -153.9375 166.304688 -139.015625 161.796875 -119.203125 C 157.296875 -99.398438 154.023438 -83.722656 151.984375 -72.171875 C 142.628906 -20.484375 114.578125 5.359375 67.828125 5.359375 C 55.929688 5.359375 45.304688 2.976562 35.953125 -1.78125 C 26.609375 -6.539062 19.253906 -13.128906 13.890625 -21.546875 C 8.535156 -29.960938 5.859375 -39.523438 5.859375 -50.234375 C 5.859375 -55.671875 6.625 -61.28125 8.15625 -67.0625 Z M 29.328125 -150.703125 "/></g></g></g><g fill="#ff0073" fill-opacity="1"><g transform="translate(816.901366, 265.124979)"><g/></g></g><g fill="#ff0073" fill-opacity="1"><g transform="translate(908.699134, 265.124979)"><g><path d="M 111.4375 -56.609375 C 89.164062 -52.867188 71.398438 -49.46875 58.140625 -46.40625 C 54.054688 -39.945312 51.421875 -35.613281 50.234375 -33.40625 C 46.660156 -27.113281 43.472656 -21.882812 40.671875 -17.71875 C 37.867188 -13.550781 34.851562 -9.851562 31.625 -6.625 C 28.050781 -3.0625 25.113281 -0.515625 22.8125 1.015625 C 20.519531 2.546875 17.847656 3.3125 14.796875 3.3125 C 9.691406 3.3125 5.226562 2.164062 1.40625 -0.125 C -2.414062 -2.414062 -4.328125 -4.753906 -4.328125 -7.140625 C -3.992188 -7.484375 -2.128906 -11.265625 1.265625 -18.484375 C 4.671875 -25.710938 10.960938 -34.765625 20.140625 -45.640625 C 20.140625 -47.003906 19.710938 -48.707031 18.859375 -50.75 C 18.015625 -52.789062 17.59375 -53.976562 17.59375 -54.3125 C 17.59375 -59.238281 25.328125 -65.191406 40.796875 -72.171875 C 49.472656 -85.085938 58.613281 -97.832031 68.21875 -110.40625 C 77.820312 -122.988281 89.59375 -137.867188 103.53125 -155.046875 C 106.925781 -159.296875 111.257812 -162.78125 116.53125 -165.5 C 121.800781 -168.21875 127.070312 -169.578125 132.34375 -169.578125 C 137.78125 -169.578125 141.859375 -169.066406 144.578125 -168.046875 C 147.304688 -167.023438 149.050781 -165.664062 149.8125 -163.96875 C 150.570312 -162.269531 150.953125 -159.890625 150.953125 -156.828125 C 150.273438 -151.722656 149.851562 -147.894531 149.6875 -145.34375 C 147.132812 -124.78125 145.21875 -107.144531 143.9375 -92.4375 C 142.664062 -77.726562 142.03125 -63.066406 142.03125 -48.453125 C 142.03125 -35.023438 142.625 -22.695312 143.8125 -11.46875 C 143.3125 -7.394531 141.53125 -3.695312 138.46875 -0.375 C 135.40625 2.9375 131.832031 4.59375 127.75 4.59375 C 119.9375 4.59375 114.796875 2.640625 112.328125 -1.265625 C 109.859375 -5.179688 108.625 -11.816406 108.625 -21.171875 C 108.625 -27.960938 109.5625 -39.773438 111.4375 -56.609375 Z M 78.28125 -75.734375 C 81.34375 -76.410156 86.019531 -77.175781 92.3125 -78.03125 L 112.703125 -81.09375 C 114.234375 -104.71875 116.019531 -121.71875 118.0625 -132.09375 C 111.4375 -124.269531 98.175781 -105.484375 78.28125 -75.734375 Z M 78.28125 -75.734375 "/></g></g></g><g fill="#ff0073" fill-opacity="1"><g transform="translate(1101.473749, 265.124979)"><g><path d="M 157.59375 -170.34375 C 163.882812 -169.15625 168.003906 -168.175781 169.953125 -167.40625 C 171.910156 -166.644531 173.226562 -165.5 173.90625 -163.96875 C 170.34375 -150.195312 165.671875 -130.6875 159.890625 -105.4375 C 154.109375 -80.195312 150.195312 -63.238281 148.15625 -54.5625 C 144.414062 -37.226562 140.929688 -21.847656 137.703125 -8.421875 C 135.316406 0.929688 131.578125 5.609375 126.484375 5.609375 C 113.046875 5.609375 105.394531 2.890625 103.53125 -2.546875 L 103.015625 -2.046875 L 61.453125 -113.21875 L 45.640625 -48.953125 C 42.585938 -37.222656 39.273438 -23.96875 35.703125 -9.1875 C 34.515625 -4.25 32.6875 -0.929688 30.21875 0.765625 C 27.75 2.460938 23.113281 3.3125 16.3125 3.3125 C 11.050781 3.3125 7.1875 2.414062 4.71875 0.625 C 2.25 -1.15625 1.015625 -4.171875 1.015625 -8.421875 C 1.015625 -10.285156 1.269531 -12.066406 1.78125 -13.765625 L 36.71875 -151.71875 C 38.59375 -159.195312 40.59375 -164.171875 42.71875 -166.640625 C 44.84375 -169.109375 48.707031 -170.34375 54.3125 -170.34375 C 58.90625 -170.34375 62.984375 -169.832031 66.546875 -168.8125 C 70.117188 -167.789062 71.992188 -166.257812 72.171875 -164.21875 L 72.171875 -163.453125 L 113.21875 -49.71875 C 124.269531 -103.101562 131.328125 -134.46875 134.390625 -143.8125 C 136.765625 -150.957031 139.988281 -156.910156 144.0625 -161.671875 C 148.144531 -166.429688 152.65625 -169.320312 157.59375 -170.34375 Z M 71.90625 -164.46875 Z M 103.015625 -5.359375 Z M 103.015625 -5.359375 "/></g></g></g></svg>